<svg width="86" height="70" viewBox="0 0 86 70" fill="none" xmlns="http://www.w3.org/2000/svg">
<g clip-path="url(#clip0_18_53)">
<path fill-rule="evenodd" clip-rule="evenodd" d="M0 19.0731L10.2357 22.131C18.3119 30.2371 24.6818 39.8794 28.9691 50.4885C21.5537 38.1526 11.6956 27.4621 0 19.0731H0Z" fill="white"/>
<path fill-rule="evenodd" clip-rule="evenodd" d="M4.22736 12.8823L16.3085 16.9165C24.6774 27.7746 27.4455 38.7184 29.0335 49.716C22.5315 30.8324 14.4738 17.7212 4.22736 12.8823Z" fill="white"/>
<path fill-rule="evenodd" clip-rule="evenodd" d="M39.8593 16.6161C29.3553 12.7643 18.8406 9.47043 8.30444 6.34821C19.6024 13.3759 27.7674 25.4463 29.1836 48.3212C30.5075 37.1274 34.1429 26.3309 39.8593 16.6161Z" fill="white"/>
<path fill-rule="evenodd" clip-rule="evenodd" d="M29.3017 50.6387C31.1686 32.1843 37.8851 15.1462 53.6786 0.715332L85.6948 10.5326C72.9591 17.1526 63.0238 29.9312 56.715 50.6387H29.3017Z" fill="white"/>
<path fill-rule="evenodd" clip-rule="evenodd" d="M85.6948 10.5326L61.9831 3.26886C62.4761 3.95057 63.0864 4.53912 63.7856 5.007C64.4641 5.44954 65.2506 5.69813 66.0602 5.72587C65.4707 6.10401 65.0075 6.64944 64.7298 7.29234C64.4321 7.91885 64.2816 8.60514 64.2899 9.29872C64.2917 9.76586 64.3828 10.2283 64.5581 10.6613C64.6582 10.9078 64.7803 11.1448 64.9229 11.3695C65.4178 12.0743 66.1617 12.5651 67.0044 12.7428C67.5922 12.9194 68.219 12.9194 68.8069 12.7428C69.3668 12.6358 69.8775 12.3518 70.2638 11.9326C70.6501 11.5134 70.8916 10.9813 70.9527 10.4146C70.981 10.1107 70.9331 9.80466 70.8133 9.52403C70.6804 9.21812 70.4993 8.93556 70.2768 8.68715C70.1419 8.4832 69.9448 8.32817 69.7148 8.24507C69.4848 8.16196 69.2341 8.1552 69 8.22579C68.9027 8.26742 68.8094 8.31769 68.7211 8.376C68.3563 8.65496 68.2382 8.94465 68.3563 9.26653C68.42 9.39054 68.4994 9.50591 68.5923 9.60987C68.6898 9.71422 68.7695 9.83383 68.8283 9.96393C68.9571 10.2858 68.8283 10.5755 68.4528 10.833C68.3693 10.893 68.2793 10.9433 68.1846 10.9832C67.7661 11.1549 67.3477 10.9832 66.9185 10.5219C66.6916 10.2768 66.51 9.99348 66.3821 9.68497C66.2763 9.42689 66.2322 9.14767 66.2533 8.86955C66.3128 8.3022 66.5537 7.76919 66.9403 7.34972C67.3269 6.93026 67.8386 6.64673 68.3992 6.54129C68.987 6.36472 69.6138 6.36472 70.2017 6.54129C70.7269 6.67051 71.2165 6.91593 71.6343 7.25945C72.0521 7.60297 72.3875 8.03586 72.6158 8.52621C72.8487 9.01915 72.9494 9.5642 72.908 10.1078C72.8666 10.6514 72.6846 11.175 72.3797 11.627C72.9559 10.9078 73.6902 10.3314 74.5256 9.94248C74.9604 9.76215 75.4349 9.69896 75.9018 9.7592C76.3687 9.81945 76.8116 10.001 77.1865 10.2858C77.1277 10.763 76.9398 11.2151 76.6429 11.5932C76.3461 11.9714 75.9516 12.2613 75.502 12.4317C74.6152 12.7306 73.6703 12.8152 72.7445 12.6784C73.2807 12.8084 73.7745 13.0741 74.1784 13.4498C74.5824 13.8256 74.883 14.2989 75.0513 14.8243C75.2229 15.3377 75.2763 15.8832 75.2076 16.4201C75.1389 16.957 74.9497 17.4715 74.6544 17.9251C74.3263 18.4426 73.8573 18.8558 73.3025 19.116C72.8217 19.4089 72.2605 19.5417 71.6994 19.4955C71.1384 19.4492 70.6065 19.2262 70.1802 18.8585C69.9758 18.6723 69.8178 18.4408 69.7189 18.1826C69.6029 17.8699 69.5412 17.5397 69.5365 17.2062C69.5365 16.5624 69.7189 16.1333 70.1373 15.9938C70.2333 15.9544 70.3345 15.9291 70.4377 15.9187C70.8991 15.8543 71.1888 15.9831 71.3175 16.3049C71.3581 16.4408 71.3798 16.5816 71.3819 16.7234C71.386 16.865 71.4076 17.0055 71.4463 17.1418C71.575 17.4422 71.854 17.571 72.3154 17.5281C72.4219 17.5109 72.5262 17.4821 72.6265 17.4422C73.045 17.2813 73.2488 16.8736 73.2381 16.2406C73.2323 15.9037 73.1706 15.5702 73.0557 15.2535C72.9532 14.9971 72.7957 14.7664 72.5943 14.5775C72.1684 14.2058 71.635 13.9794 71.0717 13.9311C70.5084 13.8829 69.9443 14.0154 69.4614 14.3093C68.9068 14.5271 68.4264 14.8994 68.0773 15.3822C67.5884 16.0939 67.3819 16.9621 67.4979 17.8178C67.5502 18.0767 67.622 18.3314 67.7125 18.5795C67.9404 19.1347 68.2856 19.634 68.7245 20.0433C69.1634 20.4526 69.6856 20.7621 70.2553 20.9507C70.8512 21.1874 71.5002 21.2579 72.133 21.1546C75.9694 16.818 80.5653 13.2183 85.6948 10.5326Z" fill="#C8C8C8" fill-opacity="0.36"/>
<path d="M10.0211 61.722V60.2628L14.2163 55.0806H10.4932V53.7394H16.3407V54.984L11.9631 60.3487H16.5016V61.6898L10.0211 61.722ZM17.5316 61.722V53.7394H19.1518V56.8831H22.3062V53.7394H23.9263V61.722H22.3062V58.235H19.1518V61.722H17.5316ZM25.5893 53.7394H27.1987V58.0312C27.1709 58.4742 27.1709 58.9185 27.1987 59.3616C27.2636 59.6765 27.4386 59.958 27.6923 60.1556C28.0096 60.3648 28.3857 60.4663 28.7652 60.4452C29.1448 60.4842 29.5256 60.3851 29.8381 60.1663C30.0614 60.0003 30.2114 59.7541 30.2566 59.4796C30.3194 59.0283 30.3446 58.5725 30.3317 58.117V53.7394H31.9411V57.9346C31.9613 58.6131 31.9182 59.2919 31.8123 59.9624C31.7416 60.3316 31.5751 60.6757 31.3295 60.9602C31.0735 61.2528 30.7492 61.4777 30.3853 61.6147C29.8946 61.7951 29.3736 61.8789 28.851 61.8615C28.2594 61.893 27.6676 61.8017 27.1129 61.5933C26.7538 61.4379 26.4346 61.2032 26.1795 60.9066C25.9671 60.6495 25.8134 60.3493 25.7288 60.0268C25.608 59.358 25.5577 58.6783 25.5786 57.999L25.5893 53.7394ZM33.6685 53.7394H36.8873C37.3606 53.7281 37.8341 53.7533 38.3035 53.8145C38.6032 53.8651 38.8881 53.9806 39.1383 54.1529C39.3886 54.3253 39.598 54.5504 39.752 54.8124C39.9252 55.1127 40.0119 55.4551 40.0024 55.8017C39.9929 56.1482 39.8877 56.4854 39.6984 56.7758C39.5047 57.0866 39.22 57.3301 38.8829 57.4732C39.3058 57.603 39.6797 57.8573 39.9559 58.2028C40.2119 58.5391 40.3513 58.9497 40.3528 59.3723C40.3534 59.7453 40.2651 60.1131 40.0953 60.4452C39.9427 60.776 39.7059 61.0608 39.4087 61.2714C39.089 61.4862 38.7196 61.6155 38.3357 61.6469C38.0675 61.6469 37.4237 61.6469 36.3937 61.6469H33.6685V53.7394ZM35.2779 55.0806V56.926H36.3508C36.9838 56.926 37.4237 56.926 37.531 56.926C37.7708 56.9078 37.9975 56.8096 38.1748 56.6471C38.2549 56.563 38.3171 56.4636 38.3577 56.3548C38.3983 56.246 38.4164 56.13 38.4108 56.014C38.421 55.7952 38.3482 55.5806 38.207 55.4132C38.1269 55.3154 38.0274 55.2354 37.9147 55.1781C37.802 55.1209 37.6787 55.0877 37.5525 55.0806C37.3916 55.0806 36.9302 55.0806 36.1684 55.0806H35.2779ZM35.2779 58.2994V60.4452H36.7693C37.1264 60.4724 37.4851 60.4724 37.8422 60.4452C38.0652 60.4108 38.2697 60.301 38.4216 60.1341C38.5876 59.9452 38.6724 59.6985 38.6576 59.4474C38.6596 59.2314 38.6001 59.0193 38.4859 58.8358C38.3547 58.6654 38.1753 58.5383 37.9709 58.4711C37.5019 58.3739 37.0222 58.3379 36.5439 58.3638L35.2779 58.2994ZM48.9255 61.722H47.2089L46.5114 59.9088H43.2927L42.6274 61.722H40.9108L43.9901 53.7394H45.696L48.9255 61.722ZM45.9535 58.5676L44.8806 55.5956L43.8077 58.5676H45.9535ZM49.8053 61.722V53.7394H51.3718L54.5906 59.1041V53.7394H56.082V61.722H54.5155L51.2967 56.5183V61.722H49.8053ZM57.5197 57.7736C57.5208 57.0694 57.6631 56.3726 57.9381 55.7244C58.1261 55.3295 58.376 54.9673 58.6785 54.6514C58.9853 54.3436 59.3499 54.0993 59.7514 53.9326C60.2978 53.7177 60.881 53.612 61.4681 53.6214C61.9873 53.5933 62.5066 53.6742 62.9926 53.859C63.4786 54.0438 63.9205 54.3284 64.2899 54.6943C64.9739 55.5586 65.3461 56.6285 65.3461 57.7307C65.3461 58.8329 64.9739 59.9029 64.2899 60.7671C63.9225 61.1328 63.4825 61.4173 62.9983 61.6021C62.514 61.7869 61.9964 61.868 61.4788 61.84C60.9583 61.8651 60.4383 61.7827 59.951 61.5982C59.4637 61.4136 59.0196 61.1307 58.6463 60.7671C58.2704 60.3671 57.9774 59.8966 57.784 59.3829C57.5907 58.8692 57.5008 58.3222 57.5197 57.7736ZM59.1827 57.7736C59.1286 58.5153 59.3545 59.2504 59.8158 59.8337C60.0171 60.062 60.2648 60.2449 60.5423 60.3701C60.8198 60.4954 61.1207 60.5602 61.4252 60.5602C61.7296 60.5602 62.0306 60.4954 62.308 60.3701C62.5855 60.2449 62.8332 60.062 63.0345 59.8337C63.4341 59.2169 63.6466 58.4978 63.6466 57.7629C63.6466 57.0281 63.4341 56.3089 63.0345 55.6922C62.8338 55.4694 62.5865 55.2934 62.3103 55.1766C62.0341 55.0598 61.7356 55.005 61.4359 55.0162C61.1338 55.0063 60.8331 55.0626 60.5551 55.1812C60.2771 55.2999 60.0284 55.4779 59.8265 55.7029C59.376 56.2758 59.1474 56.992 59.1827 57.72V57.7736ZM68.5709 61.7757L65.7169 53.7931H67.4657L69.4828 59.7049L71.4463 53.7931H73.1523L70.2983 61.7757H68.5709Z" fill="white"/>
<path d="M21.759 63.6641H22.5315V66.9472C22.5482 67.4128 22.4828 67.8777 22.3384 68.3206C22.2031 68.6624 21.9577 68.9494 21.641 69.136C21.2367 69.3666 20.7755 69.4782 20.3105 69.4579C19.8578 69.4752 19.4079 69.3793 19.0016 69.1789C18.6709 69.0105 18.4119 68.7287 18.272 68.385C18.1075 67.9243 18.0346 67.4359 18.0574 66.9472V63.6641H18.8084V66.9472C18.7917 67.3103 18.8389 67.6735 18.9479 68.0202C19.0373 68.2517 19.2041 68.4451 19.42 68.5674C19.6762 68.6953 19.96 68.7579 20.2462 68.7498C20.4582 68.772 20.6724 68.7501 20.8756 68.6854C21.0787 68.6208 21.2662 68.5149 21.4264 68.3742C21.7138 67.9493 21.8394 67.4354 21.7805 66.9258L21.759 63.6641ZM23.7654 69.3613V63.6641H24.5379L27.5314 68.1382V63.6641H28.2502V69.3613H27.4777L24.4842 64.8765V69.3613H23.7654ZM29.6558 69.3613V63.6641H30.4068V69.3613H29.6558ZM33.3681 69.3613L31.1149 63.6641H31.9411L33.4217 67.7949C33.5362 68.1239 33.6327 68.435 33.7114 68.7283C33.808 68.4172 33.9045 68.106 34.0226 67.7949L35.6105 63.6641H36.3723L34.1406 69.3613H33.3681ZM37.0697 69.3613V63.6641H41.1897V64.3293H37.8207V66.0782H40.9751V66.7434H37.8207V68.6854H41.3185V69.3613H37.0697ZM42.37 69.3613V63.6641H44.9021C45.2942 63.6445 45.6867 63.6953 46.0608 63.8143C46.3257 63.9177 46.5485 64.1064 46.6939 64.3508C46.8511 64.6092 46.9329 64.9066 46.9299 65.2091C46.9413 65.4057 46.912 65.6024 46.8436 65.7871C46.7753 65.9717 46.6695 66.1403 46.5329 66.282C46.2017 66.5921 45.7733 66.7779 45.3205 66.8078C45.4845 66.8827 45.6393 66.9763 45.7819 67.0867C46.0187 67.3151 46.2276 67.5708 46.4042 67.8485L47.3913 69.4043H46.4471L45.696 68.2133C45.4707 67.87 45.2883 67.6125 45.1488 67.4301C45.0429 67.2804 44.9123 67.1498 44.7626 67.0438C44.656 66.9748 44.5405 66.9206 44.4193 66.8829H43.9901H43.1317V69.415L42.37 69.3613ZM43.1317 66.1426H44.7519C45.0243 66.1546 45.2968 66.1183 45.5566 66.0353C45.7381 65.9745 45.8934 65.8533 45.9965 65.6919C46.1003 65.5407 46.1529 65.3602 46.1467 65.1769C46.1498 65.0532 46.1254 64.9303 46.0753 64.8171C46.0252 64.704 45.9507 64.6033 45.857 64.5224C45.594 64.3202 45.2646 64.2245 44.9343 64.2542H43.1317V66.1426ZM47.8633 67.4944L48.5715 67.4301C48.5889 67.6823 48.6701 67.926 48.8075 68.1382C48.9482 68.3389 49.1465 68.4923 49.3762 68.5781C49.9052 68.7774 50.4887 68.7774 51.0178 68.5781C51.209 68.5083 51.3765 68.3855 51.5006 68.224C51.6134 68.0845 51.6741 67.9099 51.6722 67.7305C51.675 67.5625 51.618 67.3989 51.5113 67.2691C51.3726 67.1117 51.195 66.9933 50.9963 66.9258C50.6651 66.8185 50.3285 66.729 49.9877 66.6576C49.6174 66.577 49.2575 66.4546 48.9148 66.2928C48.6686 66.1739 48.4577 65.9926 48.3033 65.767C48.1748 65.5533 48.108 65.3082 48.1101 65.0589C48.1061 64.7714 48.1924 64.49 48.3569 64.2542C48.5259 63.9936 48.7741 63.7943 49.065 63.6855C49.7542 63.4119 50.5218 63.4119 51.2109 63.6855C51.5123 63.8018 51.7707 64.0078 51.9512 64.2757C52.125 64.5448 52.2215 64.8566 52.2302 65.1769H51.5113C51.4917 64.8634 51.349 64.5703 51.1143 64.3615C50.8129 64.1862 50.4705 64.0939 50.1219 64.0939C49.7732 64.0939 49.4308 64.1862 49.1294 64.3615C49.0322 64.4284 48.953 64.5182 48.8987 64.623C48.8445 64.7278 48.8168 64.8443 48.8183 64.9623C48.814 65.0571 48.831 65.1516 48.8681 65.2389C48.9053 65.3262 48.9616 65.404 49.0328 65.4666C49.3795 65.6801 49.7668 65.8189 50.1701 65.8743C50.6023 65.9574 51.0261 66.0795 51.4362 66.2391C51.7306 66.3572 51.9841 66.5585 52.1658 66.8185C52.3266 67.0595 52.4091 67.3443 52.4018 67.6339C52.4008 67.9389 52.3114 68.2371 52.1443 68.4923C51.9613 68.7697 51.6999 68.9863 51.3933 69.1146C51.0562 69.2665 50.6901 69.3433 50.3204 69.3399C49.8769 69.3524 49.4354 69.2758 49.0221 69.1146C48.6971 68.9648 48.4227 68.7239 48.2322 68.421C48.0417 68.1181 47.9434 67.7664 47.9492 67.4086L47.8633 67.4944ZM53.5499 69.3291V63.6641H54.3116V69.3613L53.5499 69.3291ZM57.0905 69.3291V64.3615H55.2129V63.6641H59.7299V64.3293H57.8416V69.3613L57.0905 69.3291ZM62.1118 69.3291V66.9794L59.966 63.6963H60.8887L61.9616 65.413C62.1619 65.7348 62.355 66.0567 62.541 66.3786C62.7127 66.0782 62.9165 65.7348 63.1633 65.37L64.2362 63.6963H65.116L62.8414 66.9794V69.3935L62.1118 69.3291Z" fill="white"/>
</g>
<defs>
<clipPath id="clip0_18_53">
<rect width="85.6969" height="70" fill="white"/>
</clipPath>
</defs>
</svg>
